<?xml version="1.0" encoding="UTF-8" standalone="no"?>
<svg
   width="29"
   height="22"
   viewBox="0 0 29 22"
   fill="none"
   version="1.1"
   id="svg4"
   sodipodi:docname="quote.svg"
   inkscape:version="1.1.2 (76b9e6a115, 2022-02-25)"
   xmlns:inkscape="http://www.inkscape.org/namespaces/inkscape"
   xmlns:sodipodi="http://sodipodi.sourceforge.net/DTD/sodipodi-0.dtd"
   xmlns="http://www.w3.org/2000/svg"
   xmlns:svg="http://www.w3.org/2000/svg">
  <defs
     id="defs8" />
  <sodipodi:namedview
     id="namedview6"
     pagecolor="#505050"
     bordercolor="#eeeeee"
     borderopacity="1"
     inkscape:pageshadow="0"
     inkscape:pageopacity="0"
     inkscape:pagecheckerboard="0"
     showgrid="false"
     inkscape:zoom="33.863636"
     inkscape:cx="13.805369"
     inkscape:cy="11"
     inkscape:window-width="1676"
     inkscape:window-height="990"
     inkscape:window-x="0"
     inkscape:window-y="30"
     inkscape:window-maximized="1"
     inkscape:current-layer="svg4" />
  <path
     d="M28.44 3.64C26.312 4.312 24.604 5.32 23.316 6.664C22.084 8.008 21.608 9.744 21.888 11.872C22.504 12.376 23.372 12.908 24.492 13.468C25.612 13.972 26.592 14.364 27.432 14.644C27.656 15.54 27.656 16.408 27.432 17.248C27.208 18.088 26.844 18.844 26.34 19.516C25.836 20.132 25.248 20.664 24.576 21.112C23.904 21.504 23.288 21.728 22.728 21.784C20.768 21.616 19.06 20.888 17.604 19.6C16.148 18.312 15.42 16.464 15.42 14.056C15.42 12.656 15.644 11.256 16.092 9.856C16.596 8.456 17.324 7.168 18.276 5.992C19.228 4.76 20.432 3.696 21.888 2.8C23.344 1.848 25.08 1.176 27.096 0.783995L28.44 3.64ZM13.152 3.64C11.024 4.312 9.316 5.32 8.028 6.664C6.796 8.008 6.32 9.744 6.6 11.872C7.216 12.376 8.084 12.908 9.204 13.468C10.324 13.972 11.304 14.364 12.144 14.644C12.368 15.54 12.368 16.408 12.144 17.248C11.92 18.088 11.556 18.844 11.052 19.516C10.548 20.132 9.96 20.664 9.288 21.112C8.616 21.504 8 21.728 7.44 21.784C5.48 21.616 3.772 20.888 2.316 19.6C0.860001 18.312 0.132001 16.464 0.132001 14.056C0.132001 12.656 0.356 11.256 0.804 9.856C1.308 8.456 2.036 7.168 2.988 5.992C3.94 4.76 5.144 3.696 6.6 2.8C8.056 1.848 9.792 1.176 11.808 0.783995L13.152 3.64Z"
     fill="#F0E0C7"
     id="path2"
     style="fill:#efd6af;fill-opacity:1" />
</svg>
